# xmcd
#
# Track frame offsets: 
#        150
#        15882
#        28653
#        41465
#        55204
#        68302
#        80693
#        94185
#        132763
#        149155
#        162687
#        173846
#        184903
#        211401
#
# Disc length: 3982 seconds
#
# Revision: 2
# Processed by: cddbd v1.5.2PL0 Copyright (c) Steve Scherf et al.
# Submitted via: ExactAudioCopy v0.99pb4
#
DISCID=bf0f8c0e
DTITLE=Bar-Kays - The Best Of The Bar-Kays
DYEAR=1999
DGENRE=Soul/Funk
TTITLE0=Son Of Shaft
TTITLE1=Montego Bay
TTITLE2=Humpin'
TTITLE3=Sang And Dance
TTITLE4=Midnight Cowboy
TTITLE5=A.J. The Housefly
TTITLE6=In The Hole
TTITLE7=Holy Ghost
TTITLE8=I Thank You
TTITLE9=Don't Stop Dancing (To The Music) [Part 1]
TTITLE10=Don't Stop Dancing (To The Music) [Part 2]
TTITLE11=Copy Cat
TTITLE12=Memphis Sunrise
TTITLE13=Multimedia-Track
EXTD=The Bar-Kays 'The Best Of The Bar-Kays'\n(1968 - 1975]\n\n© 1992/
EXTD=1999\nLabel: Stax Records (Fantasy Inc.]\nSCD24 8542-2\n24 BIT Re
EXTD=mastered
EXTT0=
EXTT1=
EXTT2=
EXTT3=
EXTT4=
EXTT5=
EXTT6=
EXTT7=
EXTT8=
EXTT9=
EXTT10=
EXTT11=
EXTT12=
EXTT13=
PLAYORDER=
